<?xml version="1.0" standalone="no"?>
<!DOCTYPE svg PUBLIC "-//W3C//DTD SVG 20010904//EN"
 "http://www.w3.org/TR/2001/REC-SVG-20010904/DTD/svg10.dtd">
<svg version="1.0" xmlns="http://www.w3.org/2000/svg"
 width="300.000000pt" height="300.000000pt" viewBox="0 0 300.000000 300.000000"
 preserveAspectRatio="xMidYMid meet">
<metadata>
Created by potrace 1.14, written by Peter Selinger 2001-2017
</metadata>
<g transform="translate(0.000000,300.000000) scale(0.100000,-0.100000)"
fill="#000000" stroke="none">
<path d="M1360 2114 c-247 -53 -409 -252 -436 -536 -21 -219 16 -454 98 -628
105 -220 211 -303 385 -302 59 0 63 -1 69 -24 7 -29 -6 -46 -38 -51 -34 -5
-132 -36 -138 -44 -3 -3 -14 -9 -25 -13 -26 -8 -92 -72 -110 -106 -19 -37 -23
-78 -13 -123 8 -37 7 -39 -46 -88 -53 -48 -94 -117 -103 -171 l-4 -28 93 0 93
1 20 31 c11 17 29 37 41 44 18 13 22 10 49 -31 l28 -45 297 0 297 0 38 60 c21
34 41 59 44 58 3 -2 18 -10 32 -17 14 -7 39 -33 54 -57 l28 -44 83 0 c91 0
119 6 106 24 -5 6 -14 30 -21 54 -21 73 -97 172 -146 188 -35 12 -43 29 -41
89 2 42 -2 67 -17 94 -43 79 -165 137 -300 144 -37 2 -71 7 -76 13 -13 13 -23
114 -11 114 15 0 134 122 154 160 36 65 50 99 48 113 -1 4 3 7 9 7 5 0 8 3 5
8 -2 4 0 30 6 57 10 54 16 195 8 195 -3 0 -6 46 -7 103 -5 230 -19 334 -58
453 -57 169 -145 264 -280 299 -71 18 -128 18 -215 -1z"/>
</g>
</svg>
