<?xml version="1.0" standalone="no"?>
<!DOCTYPE svg PUBLIC "-//W3C//DTD SVG 20010904//EN"
 "http://www.w3.org/TR/2001/REC-SVG-20010904/DTD/svg10.dtd">
<svg version="1.0" xmlns="http://www.w3.org/2000/svg"
 width="200.000000pt" height="200.000000pt" viewBox="0 0 200.000000 200.000000"
 preserveAspectRatio="xMidYMid meet">
<metadata>
Created by potrace 1.14, written by Peter Selinger 2001-2017
</metadata>
<g transform="translate(0.000000,200.000000) scale(0.100000,-0.100000)"
fill="#000000" stroke="none">
<path d="M878 1401 c-140 -45 -215 -132 -252 -290 -17 -72 -14 -270 4 -316 6
-16 11 -31 10 -33 -5 -10 18 -78 47 -138 67 -138 138 -191 260 -193 38 -1 43
-3 40 -23 -2 -12 -10 -22 -18 -24 -125 -19 -202 -84 -202 -171 1 -43 -4 -53
-40 -90 -22 -24 -42 -48 -44 -55 -1 -7 -5 -25 -9 -40 l-6 -28 57 0 c53 0 61 3
87 32 27 31 29 31 43 12 8 -10 15 -25 15 -31 0 -10 47 -13 201 -13 213 0 207
-1 242 53 15 23 21 26 38 16 12 -6 28 -24 37 -40 16 -27 21 -29 80 -29 56 0
62 2 62 20 0 48 -73 150 -117 164 -14 4 -18 16 -18 53 0 103 -77 150 -260 162
-5 1 -10 18 -10 39 0 31 7 43 46 79 76 70 112 166 110 291 -3 213 -18 339 -51
422 -64 163 -188 223 -352 171z"/>
</g>
</svg>
